# xmcd CD database file
#
# Track frame offsets:
#	150
#	10323
#	23142
#	37509
#	52470
#	62347
#	76746
#	87835
#	100203
#	111685
#	122969
#	137783
#	148653
#	160057
#	172570
#	183581
#	193929
#	204938
#	218281
#	230732
#
# Disc length: 3247 seconds
#
# Revision: 0
# Processed by: cddbd v1.5.2PL0 Copyright (c) Steve Scherf et al.
# Submitted via: CDex 1.51
#
DISCID=0d0cad14
DTITLE=Various Artist - Ladies Of Country - CD2
DYEAR=2006
DGENRE=Country
TTITLE0=Three Cigarettes In An Ashtray - Patsy Cline
TTITLE1=Rose Garden - Lynn Anderson
TTITLE2=I'll Never Be Free - Billie Jo Spears
TTITLE3=Country Girls - Becky Hobbs
TTITLE4=Release Me - Dolly Parton
TTITLE5=Raining In My Heart - Connie Francis
TTITLE6=Stranger In My Arms - Patsy Cline
TTITLE7=Sunshine  - Billie Jo Spears
TTITLE8=Listen To A Country Song - Lynn Anderson
TTITLE9=It Wasn't God Who Made Honky Tonk Angels - Kitty Wells
TTITLE10=Feudin' And Fightin' - Dorothy Shay
TTITLE11=Someday Soon - Lynn Anderson
TTITLE12=I'm Having A Party All By Myself - Charlene Arthur
TTITLE13=He's On The Run Again - Billie Jo Spears
TTITLE14=Wabash Cannonball - Kay Starr
TTITLE15=Two Whoops And A Holler - Jean Shepard
TTITLE16=Don't Ever Leave Me Again - Patsy Cline
TTITLE17=I Forgot More Than You'll Ever Know - Davis Sisters
TTITLE18=The Cheatin' Kind - Billie Jo Spears
TTITLE19=Top Of The World - Lynn Anderson
EXTD=YEAR: 2006
EXTT0=
EXTT1=
EXTT2=
EXTT3=
EXTT4=
EXTT5=
EXTT6=
EXTT7=
EXTT8=
EXTT9=
EXTT10=
EXTT11=
EXTT12=
EXTT13=
EXTT14=
EXTT15=
EXTT16=
EXTT17=
EXTT18=
EXTT19=
PLAYORDER=
